<svg width="19" height="15" viewBox="0 0 19 15" fill="none" xmlns="http://www.w3.org/2000/svg">
<path d="M18.187 2.27912C17.5442 2.56416 16.8527 2.75695 16.1275 2.84305C16.8679 2.39945 17.4361 1.69755 17.7043 0.85982C17.0115 1.2708 16.2438 1.56894 15.4275 1.72964C14.7735 1.03309 13.8416 0.597778 12.8098 0.597778C10.83 0.597778 9.22434 2.20345 9.22434 4.1832C9.22434 4.46423 9.25616 4.73777 9.31766 5.00034C6.33788 4.85087 3.6958 3.42355 1.92729 1.25368C1.61872 1.78311 1.44171 2.39945 1.44171 3.05642C1.44171 4.30005 2.07516 5.39795 3.03669 6.04075C2.44923 6.0223 1.89601 5.86107 1.41283 5.59181C1.41257 5.60705 1.41257 5.62229 1.41257 5.63726C1.41257 7.37449 2.64897 8.82347 4.28887 9.15263C3.98833 9.23499 3.67094 9.27857 3.34445 9.27857C3.11289 9.27857 2.88856 9.25638 2.66983 9.21466C3.126 10.6388 4.44984 11.6754 6.01915 11.7046C4.79183 12.6664 3.24605 13.2394 1.56578 13.2394C1.277 13.2394 0.990894 13.2226 0.710938 13.1891C2.29682 14.2068 4.18192 14.8002 6.20659 14.8002C12.8015 14.8002 16.408 9.33686 16.408 4.59846C16.408 4.4431 16.4045 4.28828 16.3976 4.1348C17.0987 3.62944 17.7065 2.99813 18.187 2.27912Z" fill="#F1F2F2"/>
</svg>
