<svg width="17" height="17" viewBox="0 0 17 17" fill="none" xmlns="http://www.w3.org/2000/svg">
<path d="M16.9629 10.708V16.8921H13.3775V11.1224C13.3775 9.67369 12.8599 8.68435 11.5617 8.68435C10.571 8.68435 9.98248 9.35042 9.72258 9.99536C9.62819 10.2259 9.60386 10.5459 9.60386 10.8692V16.8919H6.01817C6.01817 16.8919 6.0663 7.11986 6.01817 6.10832H9.60412V7.63645C9.5969 7.64849 9.58674 7.66025 9.58033 7.67175H9.60412V7.63645C10.0806 6.90327 10.9304 5.85511 12.8355 5.85511C15.1944 5.85511 16.9629 7.39634 16.9629 10.708ZM2.26723 0.910278C1.04072 0.910278 0.238281 1.71539 0.238281 2.77318C0.238281 3.80851 1.01745 4.63688 2.22017 4.63688H2.24343C3.49401 4.63688 4.27158 3.80851 4.27158 2.77318C4.24778 1.71539 3.49401 0.910278 2.26723 0.910278ZM0.45139 16.8921H4.03574V6.10832H0.45139V16.8921Z" fill="#F1F2F2"/>
</svg>
