<svg width="18" height="19" viewBox="0 0 18 19" fill="none" xmlns="http://www.w3.org/2000/svg">
<path d="M9 6.125C8.33249 6.125 7.67997 6.32294 7.12495 6.69379C6.56993 7.06464 6.13735 7.59174 5.88191 8.20844C5.62646 8.82514 5.55962 9.50374 5.68985 10.1584C5.82008 10.8131 6.14151 11.4145 6.61351 11.8865C7.08552 12.3585 7.68688 12.6799 8.34157 12.8102C8.99626 12.9404 9.67486 12.8735 10.2916 12.6181C10.9083 12.3626 11.4354 11.9301 11.8062 11.375C12.1771 10.82 12.375 10.1675 12.375 9.5C12.3741 8.60518 12.0182 7.74728 11.3855 7.11454C10.7527 6.48181 9.89482 6.12593 9 6.125ZM9 11.75C8.55499 11.75 8.11998 11.618 7.74997 11.3708C7.37996 11.1236 7.09157 10.7722 6.92127 10.361C6.75097 9.9499 6.70642 9.4975 6.79323 9.06105C6.88005 8.62459 7.09434 8.22368 7.40901 7.90901C7.72368 7.59434 8.12459 7.38005 8.56105 7.29323C8.9975 7.20642 9.4499 7.25097 9.86104 7.42127C10.2722 7.59157 10.6236 7.87996 10.8708 8.24997C11.118 8.61998 11.25 9.05499 11.25 9.5C11.25 10.0967 11.0129 10.669 10.591 11.091C10.169 11.5129 9.59674 11.75 9 11.75ZM12.375 2.1875H5.625C4.58105 2.18862 3.58018 2.60382 2.842 3.342C2.10382 4.08018 1.68862 5.08105 1.6875 6.125V12.875C1.68862 13.9189 2.10382 14.9198 2.842 15.658C3.58018 16.3962 4.58105 16.8114 5.625 16.8125H12.375C13.4189 16.8114 14.4198 16.3962 15.158 15.658C15.8962 14.9198 16.3114 13.9189 16.3125 12.875V6.125C16.3114 5.08105 15.8962 4.08018 15.158 3.342C14.4198 2.60382 13.4189 2.18862 12.375 2.1875ZM15.1875 12.875C15.1875 13.6209 14.8912 14.3363 14.3637 14.8637C13.8363 15.3912 13.1209 15.6875 12.375 15.6875H5.625C4.87908 15.6875 4.16371 15.3912 3.63626 14.8637C3.10882 14.3363 2.8125 13.6209 2.8125 12.875V6.125C2.8125 5.37908 3.10882 4.66371 3.63626 4.13626C4.16371 3.60882 4.87908 3.3125 5.625 3.3125H12.375C13.1209 3.3125 13.8363 3.60882 14.3637 4.13626C14.8912 4.66371 15.1875 5.37908 15.1875 6.125V12.875ZM13.5 5.84375C13.5 6.01063 13.4505 6.17376 13.3578 6.31251C13.2651 6.45127 13.1333 6.55941 12.9791 6.62327C12.825 6.68713 12.6553 6.70384 12.4916 6.67129C12.328 6.63873 12.1776 6.55837 12.0596 6.44037C11.9416 6.32237 11.8613 6.17203 11.8287 6.00836C11.7962 5.84469 11.8129 5.67504 11.8767 5.52086C11.9406 5.36669 12.0487 5.23491 12.1875 5.1422C12.3262 5.04948 12.4894 5 12.6562 5C12.88 5 13.0946 5.08889 13.2529 5.24713C13.4111 5.40536 13.5 5.61997 13.5 5.84375Z" fill="white"/>
</svg>
